<svg xmlns="http://www.w3.org/2000/svg" xmlns:xlink="http://www.w3.org/1999/xlink" width="122.034" height="45.521" viewBox="0 0 122.034 45.521">
  <defs>
    <clipPath id="clip-path">
      <rect id="Rectangle_447" data-name="Rectangle 447" width="89.033" height="0.428" fill="none"/>
    </clipPath>
    <linearGradient id="linear-gradient" x1="-0.607" y1="0.812" x2="1" y2="0.075" gradientUnits="objectBoundingBox">
      <stop offset="0" stop-color="#17224d"/>
      <stop offset="0.834" stop-color="#7a2afe"/>
      <stop offset="1" stop-color="#7b2aff"/>
    </linearGradient>
    <linearGradient id="linear-gradient-2" x1="1.722" y1="-0.276" x2="0.129" y2="0.812" gradientUnits="objectBoundingBox">
      <stop offset="0" stop-color="#17224d"/>
      <stop offset="0.853" stop-color="#792afb"/>
      <stop offset="1" stop-color="#7b2aff"/>
    </linearGradient>
    <linearGradient id="linear-gradient-3" x1="0.138" y1="0.977" x2="0.798" y2="0.235" gradientUnits="objectBoundingBox">
      <stop offset="0" stop-color="#1f8fe5"/>
      <stop offset="0.502" stop-color="#00aeef"/>
      <stop offset="1" stop-color="#24e3f2"/>
    </linearGradient>
    <linearGradient id="linear-gradient-4" x1="0.527" y1="1.191" x2="0.455" y2="-0.012" gradientUnits="objectBoundingBox">
      <stop offset="0" stop-color="#00ffb6"/>
      <stop offset="1" stop-color="#007160"/>
    </linearGradient>
    <linearGradient id="linear-gradient-5" x1="0.195" y1="1.032" x2="0.87" y2="0.013" gradientUnits="objectBoundingBox">
      <stop offset="0" stop-color="#00648d"/>
      <stop offset="0.494" stop-color="#1ee2b3"/>
      <stop offset="1" stop-color="#30fca4"/>
    </linearGradient>
    <linearGradient id="linear-gradient-6" x1="0.124" y1="0.942" x2="1.01" y2="-0.027" gradientUnits="objectBoundingBox">
      <stop offset="0" stop-color="#1ea47b"/>
      <stop offset="0.438" stop-color="#1ee2b3"/>
      <stop offset="1" stop-color="#30fca4"/>
      <stop offset="1"/>
    </linearGradient>
    <linearGradient id="linear-gradient-7" x1="1.136" y1="-0.151" x2="0" y2="0.932" gradientUnits="objectBoundingBox">
      <stop offset="0" stop-color="#31d7ff"/>
      <stop offset="1" stop-color="#3369fd"/>
    </linearGradient>
    <linearGradient id="linear-gradient-8" x1="-0.598" y1="1.401" x2="0.787" y2="0.109" gradientUnits="objectBoundingBox">
      <stop offset="0" stop-color="#00ffdc" stop-opacity="0.502"/>
      <stop offset="1" stop-color="#00c278"/>
    </linearGradient>
  </defs>
  <g id="Group_432" data-name="Group 432" transform="translate(-388.403 -45.34)">
    <g id="Group_426" data-name="Group 426" transform="translate(421.449 45.342)">
      <path id="Path_4546" data-name="Path 4546" d="M434.669,56.978a3.291,3.291,0,0,1-1.455-1.144A2.964,2.964,0,0,1,432.7,54.1v-.4a.233.233,0,0,1,.252-.253h1.076a.233.233,0,0,1,.251.253v.319a1.7,1.7,0,0,0,.74,1.412,3.2,3.2,0,0,0,1.967.555,2.687,2.687,0,0,0,1.748-.488,1.578,1.578,0,0,0,.589-1.278,1.363,1.363,0,0,0-.3-.891,2.891,2.891,0,0,0-.883-.681,16.875,16.875,0,0,0-1.69-.748,17.024,17.024,0,0,1-1.942-.857,3.582,3.582,0,0,1-1.185-1.018,2.58,2.58,0,0,1-.472-1.589,2.745,2.745,0,0,1,1.035-2.27,4.375,4.375,0,0,1,2.8-.824,5.314,5.314,0,0,1,2.186.421,3.354,3.354,0,0,1,1.454,1.176,3.045,3.045,0,0,1,.513,1.749v.253a.25.25,0,0,1-.067.184.252.252,0,0,1-.186.067h-1.092a.27.27,0,0,1-.185-.059.2.2,0,0,1-.067-.16v-.2a1.815,1.815,0,0,0-.7-1.455,2.926,2.926,0,0,0-1.925-.58,2.648,2.648,0,0,0-1.614.428,1.45,1.45,0,0,0-.572,1.236,1.394,1.394,0,0,0,.286.908,2.469,2.469,0,0,0,.849.63q.563.278,1.723.715a19.178,19.178,0,0,1,1.934.866,3.7,3.7,0,0,1,1.228,1.043,2.593,2.593,0,0,1,.487,1.605,2.94,2.94,0,0,1-.487,1.681,3.191,3.191,0,0,1-1.413,1.126,5.4,5.4,0,0,1-2.169.4A5.562,5.562,0,0,1,434.669,56.978Z" transform="translate(-432.702 -45.343)" fill="#3369fd"/>
      <path id="Path_4547" data-name="Path 4547" d="M451.063,49.9a.261.261,0,0,1,.134.319l-.236,1.092c-.011.113-.067.169-.168.169a.422.422,0,0,1-.135-.017,1.826,1.826,0,0,0-.571-.084,1.475,1.475,0,0,0-.252.016,1.888,1.888,0,0,0-1.3.547,1.81,1.81,0,0,0-.512,1.336V58.1a.232.232,0,0,1-.252.252h-1.109a.232.232,0,0,1-.253-.252V50.052a.232.232,0,0,1,.253-.253h1.109a.232.232,0,0,1,.252.253v.773c0,.045.008.07.025.075s.037-.008.059-.042a2.344,2.344,0,0,1,2.051-1.144A2.149,2.149,0,0,1,451.063,49.9Z" transform="translate(-436.183 -46.454)" fill="#3369fd"/>
      <path id="Path_4548" data-name="Path 4548" d="M460.054,56.037c.056-.1.118-.151.185-.151a.242.242,0,0,1,.151.051l.689.42a.251.251,0,0,1,.134.219l-.034.134a3.292,3.292,0,0,1-1.286,1.3,3.883,3.883,0,0,1-1.942.471,3.654,3.654,0,0,1-2.017-.53,3.269,3.269,0,0,1-1.244-1.522,6.305,6.305,0,0,1-.42-2.4,7.148,7.148,0,0,1,.184-1.866,3.216,3.216,0,0,1,1.211-1.832,3.594,3.594,0,0,1,2.2-.673,3.319,3.319,0,0,1,2.438.833,4.226,4.226,0,0,1,1.093,2.412q.084.622.118,1.513a.223.223,0,0,1-.252.253h-5.313a.074.074,0,0,0-.084.084,4.15,4.15,0,0,0,.117.908,1.847,1.847,0,0,0,.74,1.059,2.352,2.352,0,0,0,1.379.387A2.1,2.1,0,0,0,460.054,56.037ZM456.666,51.4a1.765,1.765,0,0,0-.63.976,3.932,3.932,0,0,0-.151.941.075.075,0,0,0,.084.084h3.816a.075.075,0,0,0,.084-.084,5.012,5.012,0,0,0-.1-.824,2.043,2.043,0,0,0-3.1-1.093Z" transform="translate(-438.181 -46.437)" fill="#3369fd"/>
      <path id="Path_4549" data-name="Path 4549" d="M472.179,56.037c.057-.1.119-.151.186-.151a.244.244,0,0,1,.151.051l.689.42a.251.251,0,0,1,.134.219l-.034.134A3.285,3.285,0,0,1,472.02,58a3.879,3.879,0,0,1-1.941.471,3.657,3.657,0,0,1-2.018-.53,3.269,3.269,0,0,1-1.244-1.522,6.319,6.319,0,0,1-.421-2.4,7.1,7.1,0,0,1,.186-1.866,3.21,3.21,0,0,1,1.21-1.832,3.593,3.593,0,0,1,2.2-.673,3.318,3.318,0,0,1,2.438.833,4.227,4.227,0,0,1,1.093,2.412q.084.622.118,1.513a.223.223,0,0,1-.253.253h-5.313a.074.074,0,0,0-.084.084,4.093,4.093,0,0,0,.118.908,1.846,1.846,0,0,0,.739,1.059,2.352,2.352,0,0,0,1.379.387A2.093,2.093,0,0,0,472.179,56.037ZM468.793,51.4a1.763,1.763,0,0,0-.631.976,3.935,3.935,0,0,0-.151.941.074.074,0,0,0,.084.084h3.816a.075.075,0,0,0,.084-.084,4.932,4.932,0,0,0-.1-.824,2.042,2.042,0,0,0-3.1-1.093Z" transform="translate(-441.261 -46.437)" fill="#3369fd"/>
      <path id="Path_4550" data-name="Path 4550" d="M479.175,57.225a.251.251,0,0,1-.067-.185V45.775a.233.233,0,0,1,.252-.252h1.076a.331.331,0,0,1,.3.168l5.145,8.323c.022.034.044.048.066.043s.034-.031.034-.075V45.775a.233.233,0,0,1,.252-.252h1.109a.233.233,0,0,1,.252.252V57.04a.232.232,0,0,1-.252.252h-1.093a.331.331,0,0,1-.3-.168l-5.144-8.373c-.022-.034-.045-.048-.067-.043s-.034.031-.034.076l.017,8.255a.232.232,0,0,1-.252.252h-1.11A.251.251,0,0,1,479.175,57.225Z" transform="translate(-444.49 -45.389)" fill="#7b2aff"/>
      <path id="Path_4551" data-name="Path 4551" d="M499.361,56.037c.056-.1.118-.151.185-.151a.242.242,0,0,1,.151.051l.689.42a.251.251,0,0,1,.134.219l-.033.134A3.291,3.291,0,0,1,499.2,58a3.883,3.883,0,0,1-1.942.471,3.657,3.657,0,0,1-2.018-.53A3.274,3.274,0,0,1,494,56.424a6.321,6.321,0,0,1-.42-2.4,7.142,7.142,0,0,1,.185-1.866,3.211,3.211,0,0,1,1.211-1.832,3.59,3.59,0,0,1,2.2-.673,3.317,3.317,0,0,1,2.438.833,4.232,4.232,0,0,1,1.094,2.412q.083.622.117,1.513a.223.223,0,0,1-.252.253h-5.313a.073.073,0,0,0-.083.084,4.147,4.147,0,0,0,.117.908,1.844,1.844,0,0,0,.74,1.059,2.352,2.352,0,0,0,1.379.387A2.1,2.1,0,0,0,499.361,56.037ZM495.974,51.4a1.76,1.76,0,0,0-.63.976,3.891,3.891,0,0,0-.152.941.074.074,0,0,0,.084.084h3.816a.074.074,0,0,0,.084-.084,4.932,4.932,0,0,0-.1-.824,1.856,1.856,0,0,0-1.9-1.446A1.928,1.928,0,0,0,495.974,51.4Z" transform="translate(-448.166 -46.437)" fill="#7b2aff"/>
      <path id="Path_4552" data-name="Path 4552" d="M508.767,57.091,505.2,45.809a.237.237,0,0,1-.017-.1c0-.123.078-.185.235-.185h1.194a.318.318,0,0,1,.184.059.236.236,0,0,1,.1.16l2.758,9.163c.01.045.028.067.05.067s.039-.022.051-.067l2.741-9.163a.234.234,0,0,1,.1-.16.319.319,0,0,1,.185-.059h1.16c.2,0,.274.1.219.286l-3.6,11.281a.275.275,0,0,1-.286.2h-1.227A.275.275,0,0,1,508.767,57.091Z" transform="translate(-451.115 -45.389)" fill="#00c278"/>
      <path id="Path_4553" data-name="Path 4553" d="M523.151,50.009a2.751,2.751,0,0,1,1.176,1.009,2.676,2.676,0,0,1,.412,1.471v5.6a.233.233,0,0,1-.253.252h-1.109a.233.233,0,0,1-.253-.252v-.471a.067.067,0,0,0-.033-.067.054.054,0,0,0-.067.016,3.241,3.241,0,0,1-1.119.673,4.062,4.062,0,0,1-1.4.236,3.136,3.136,0,0,1-2.018-.63,2.3,2.3,0,0,1-.79-1.908,2.515,2.515,0,0,1,.916-2.06,3.952,3.952,0,0,1,2.565-.747h1.866a.074.074,0,0,0,.083-.084v-.437a1.522,1.522,0,0,0-.428-1.152,1.816,1.816,0,0,0-1.3-.412,2.19,2.19,0,0,0-1.118.251,1.192,1.192,0,0,0-.564.707.252.252,0,0,1-.285.2l-1.211-.151a.341.341,0,0,1-.186-.076.141.141,0,0,1-.05-.142,2.271,2.271,0,0,1,1.085-1.572,4.088,4.088,0,0,1,2.294-.614A4.166,4.166,0,0,1,523.151,50.009Zm-.689,6.633a1.414,1.414,0,0,0,.663-1.194v-.976a.074.074,0,0,0-.083-.084h-1.564a2.838,2.838,0,0,0-1.58.386,1.219,1.219,0,0,0-.589,1.076,1.085,1.085,0,0,0,.445.941,1.934,1.934,0,0,0,1.152.319A2.625,2.625,0,0,0,522.462,56.642Z" transform="translate(-454.292 -46.437)" fill="#00c278"/>
      <path id="Path_4554" data-name="Path 4554" d="M531.562,56.978a3.287,3.287,0,0,1-1.454-1.144,2.96,2.96,0,0,1-.513-1.731v-.4a.233.233,0,0,1,.252-.253h1.076a.253.253,0,0,1,.186.068.25.25,0,0,1,.067.185v.319a1.7,1.7,0,0,0,.739,1.412,3.2,3.2,0,0,0,1.967.555,2.691,2.691,0,0,0,1.749-.488,1.58,1.58,0,0,0,.588-1.278,1.359,1.359,0,0,0-.3-.891,2.874,2.874,0,0,0-.882-.681,17.008,17.008,0,0,0-1.69-.748,17.075,17.075,0,0,1-1.942-.857,3.589,3.589,0,0,1-1.185-1.018,2.58,2.58,0,0,1-.471-1.589,2.744,2.744,0,0,1,1.034-2.27,4.374,4.374,0,0,1,2.8-.824,5.312,5.312,0,0,1,2.186.421,3.356,3.356,0,0,1,1.455,1.176,3.038,3.038,0,0,1,.513,1.749v.253a.232.232,0,0,1-.251.251h-1.093a.268.268,0,0,1-.185-.059.2.2,0,0,1-.068-.16v-.2a1.817,1.817,0,0,0-.7-1.455,2.924,2.924,0,0,0-1.924-.58,2.657,2.657,0,0,0-1.615.428,1.453,1.453,0,0,0-.571,1.236,1.394,1.394,0,0,0,.286.908,2.463,2.463,0,0,0,.849.63q.563.278,1.723.715a19.113,19.113,0,0,1,1.934.866,3.7,3.7,0,0,1,1.227,1.043,2.589,2.589,0,0,1,.488,1.605,2.935,2.935,0,0,1-.488,1.681,3.19,3.19,0,0,1-1.412,1.126,5.4,5.4,0,0,1-2.169.4A5.568,5.568,0,0,1,531.562,56.978Z" transform="translate(-457.316 -45.343)" fill="#3369fd"/>
      <path id="Path_4555" data-name="Path 4555" d="M547.965,50.009a2.755,2.755,0,0,1,1.177,1.009,2.683,2.683,0,0,1,.412,1.471v5.6a.232.232,0,0,1-.251.252h-1.11a.233.233,0,0,1-.252-.252v-.471a.068.068,0,0,0-.034-.067.055.055,0,0,0-.067.016,3.235,3.235,0,0,1-1.118.673,4.068,4.068,0,0,1-1.4.236,3.14,3.14,0,0,1-2.019-.63,2.3,2.3,0,0,1-.789-1.908,2.513,2.513,0,0,1,.916-2.06,3.952,3.952,0,0,1,2.564-.747h1.867a.075.075,0,0,0,.084-.084v-.437a1.522,1.522,0,0,0-.429-1.152,1.82,1.82,0,0,0-1.3-.412,2.192,2.192,0,0,0-1.118.251,1.189,1.189,0,0,0-.563.707.254.254,0,0,1-.286.2l-1.211-.151a.341.341,0,0,1-.185-.076.139.139,0,0,1-.05-.142,2.273,2.273,0,0,1,1.084-1.572,4.092,4.092,0,0,1,2.3-.614A4.159,4.159,0,0,1,547.965,50.009Zm-.689,6.633a1.415,1.415,0,0,0,.665-1.194v-.976a.074.074,0,0,0-.084-.084h-1.564a2.841,2.841,0,0,0-1.581.386,1.221,1.221,0,0,0-.589,1.076,1.085,1.085,0,0,0,.445.941,1.933,1.933,0,0,0,1.152.319A2.623,2.623,0,0,0,547.276,56.642Z" transform="translate(-460.596 -46.437)" fill="#3369fd"/>
      <path id="Path_4556" data-name="Path 4556" d="M433.556,85.968V72.442a.286.286,0,0,1,.324-.324h1.7a.286.286,0,0,1,.324.324V85.968a.286.286,0,0,1-.324.324h-1.7A.286.286,0,0,1,433.556,85.968Z" transform="translate(-432.919 -52.145)" fill="#2eccfc"/>
      <path id="Path_4557" data-name="Path 4557" d="M440.668,85.968V72.442a.286.286,0,0,1,.324-.324h1.619a.423.423,0,0,1,.405.223l5.669,9.273c.027.054.057.074.092.06s.05-.047.05-.1V72.442a.287.287,0,0,1,.325-.324h1.7a.287.287,0,0,1,.325.324V85.968a.287.287,0,0,1-.325.324h-1.66a.423.423,0,0,1-.405-.223l-5.669-9.334c-.027-.054-.057-.075-.091-.061s-.051.048-.051.1l.02,9.193a.286.286,0,0,1-.324.324h-1.681A.286.286,0,0,1,440.668,85.968Z" transform="translate(-434.726 -52.145)" fill="#2eccfc"/>
      <path id="Path_4558" data-name="Path 4558" d="M467.7,74.143h-6.782a.108.108,0,0,0-.122.122V78.01a.108.108,0,0,0,.122.122h4.536a.286.286,0,0,1,.324.324v1.376a.287.287,0,0,1-.324.324h-4.536a.107.107,0,0,0-.122.121v5.69a.287.287,0,0,1-.324.324h-1.7a.286.286,0,0,1-.324-.324V72.442a.286.286,0,0,1,.324-.324H467.7a.287.287,0,0,1,.324.324v1.377A.287.287,0,0,1,467.7,74.143Z" transform="translate(-439.242 -52.145)" fill="#2eccfc"/>
      <path id="Path_4559" data-name="Path 4559" d="M475.662,85.821a4.359,4.359,0,0,1-1.813-1.751,5.244,5.244,0,0,1-.637-2.612V76.841a5.076,5.076,0,0,1,.648-2.582,4.46,4.46,0,0,1,1.813-1.741,6.171,6.171,0,0,1,5.385,0,4.465,4.465,0,0,1,1.813,1.741,5.083,5.083,0,0,1,.648,2.582v4.616a5.181,5.181,0,0,1-.648,2.612,4.44,4.44,0,0,1-1.813,1.751,6.2,6.2,0,0,1-5.4,0Zm4.738-2.2a2.861,2.861,0,0,0,.77-2.086V76.821a2.888,2.888,0,0,0-.77-2.106,3.015,3.015,0,0,0-4.069,0,2.888,2.888,0,0,0-.77,2.106v4.718a2.861,2.861,0,0,0,.77,2.086,3.017,3.017,0,0,0,4.069,0Z" transform="translate(-442.993 -52.089)" fill="#2eccfc"/>
      <path id="Path_4560" data-name="Path 4560" d="M499.436,72.442v1.4a.286.286,0,0,1-.324.324h-3.625a.107.107,0,0,0-.122.122V85.968a.286.286,0,0,1-.324.324h-1.7a.286.286,0,0,1-.324-.324V74.284a.108.108,0,0,0-.122-.122h-3.483a.286.286,0,0,1-.324-.324v-1.4a.286.286,0,0,1,.324-.324h9.7A.286.286,0,0,1,499.436,72.442Z" transform="translate(-447.026 -52.145)" fill="#2eccfc"/>
      <path id="Path_4561" data-name="Path 4561" d="M515.138,74.143h-6.8a.108.108,0,0,0-.122.122V78.01a.108.108,0,0,0,.122.122h4.536a.286.286,0,0,1,.324.324v1.376a.287.287,0,0,1-.324.324h-4.536a.107.107,0,0,0-.122.121v3.868a.108.108,0,0,0,.122.122h6.8a.286.286,0,0,1,.324.324v1.377a.286.286,0,0,1-.324.324h-8.95a.286.286,0,0,1-.324-.324V72.442a.286.286,0,0,1,.324-.324h8.95a.286.286,0,0,1,.324.324v1.377A.286.286,0,0,1,515.138,74.143Z" transform="translate(-451.287 -52.145)" fill="#2eccfc"/>
      <path id="Path_4562" data-name="Path 4562" d="M523.881,85.8A4.311,4.311,0,0,1,522.1,84.13a4.841,4.841,0,0,1-.627-2.49v-5a4.847,4.847,0,0,1,.627-2.492,4.248,4.248,0,0,1,1.781-1.66,5.814,5.814,0,0,1,2.673-.588,5.951,5.951,0,0,1,2.653.568,4.189,4.189,0,0,1,1.781,1.6,4.51,4.51,0,0,1,.628,2.389q0,.2-.3.243l-1.721.1h-.081c-.162,0-.243-.033-.243-.1v-.122a2.579,2.579,0,0,0-.739-1.924,2.688,2.688,0,0,0-1.974-.729,2.724,2.724,0,0,0-1.984.729,2.563,2.563,0,0,0-.749,1.924v5.163a2.536,2.536,0,0,0,.749,1.9,3.066,3.066,0,0,0,3.958.01,2.545,2.545,0,0,0,.739-1.913.212.212,0,0,1,.091-.172.294.294,0,0,1,.233-.051l1.7.081c.216.028.324.06.324.1v.1a4.6,4.6,0,0,1-.628,2.421,4.168,4.168,0,0,1-1.781,1.609,5.941,5.941,0,0,1-2.653.567A5.742,5.742,0,0,1,523.881,85.8Z" transform="translate(-455.252 -52.089)" fill="#2eccfc"/>
      <path id="Path_4563" data-name="Path 4563" d="M546.474,72.118h1.7a.287.287,0,0,1,.325.324V85.968a.287.287,0,0,1-.325.324h-1.7a.287.287,0,0,1-.325-.324v-5.69a.106.106,0,0,0-.121-.121h-5.123a.107.107,0,0,0-.121.121v5.69a.286.286,0,0,1-.324.324h-1.7a.286.286,0,0,1-.324-.324V72.442a.286.286,0,0,1,.324-.324h1.7a.286.286,0,0,1,.324.324V78.01a.108.108,0,0,0,.121.122h5.123a.107.107,0,0,0,.121-.122V72.442A.287.287,0,0,1,546.474,72.118Z" transform="translate(-459.561 -52.145)" fill="#2eccfc"/>
    </g>
    <g id="Group_427" data-name="Group 427" transform="translate(422.164 82.654)">
      <path id="Path_4564" data-name="Path 4564" d="M437.942,95.393a.107.107,0,0,1,.031.078v.211a.108.108,0,0,1-.11.11H436.05a.032.032,0,0,0-.037.037v5.834a.111.111,0,0,1-.032.078.107.107,0,0,1-.078.031h-.266a.107.107,0,0,1-.078-.031.111.111,0,0,1-.032-.078V95.828a.032.032,0,0,0-.037-.037H433.77a.1.1,0,0,1-.078-.032.106.106,0,0,1-.032-.078v-.211a.1.1,0,0,1,.032-.078.106.106,0,0,1,.078-.032h4.094A.111.111,0,0,1,437.942,95.393Z" transform="translate(-433.66 -95.361)" fill="#001454"/>
      <path id="Path_4565" data-name="Path 4565" d="M446.042,101.8a1.207,1.207,0,0,0,.477-.545.108.108,0,0,1,.146-.054l.165.063c.074.031.095.08.065.146a1.631,1.631,0,0,1-.633.743,1.87,1.87,0,0,1-1.026.275,1.784,1.784,0,0,1-1.067-.312,1.63,1.63,0,0,1-.609-.852,4.456,4.456,0,0,1-.128-1.227q0-.449.013-.678a2.423,2.423,0,0,1,.059-.421,1.64,1.64,0,0,1,.6-.925,1.776,1.776,0,0,1,1.113-.348,1.752,1.752,0,0,1,1.182.385,1.728,1.728,0,0,1,.568,1.053,2.925,2.925,0,0,1,.051.38c.009.131.014.33.014.6,0,.079-.037.119-.11.119h-2.977a.032.032,0,0,0-.036.037,4.422,4.422,0,0,0,.045.788,1.21,1.21,0,0,0,.449.709,1.371,1.371,0,0,0,.87.271A1.506,1.506,0,0,0,446.042,101.8Zm-2.133-2.029c0,.025.012.037.036.037H446.5a.033.033,0,0,0,.037-.037,3.855,3.855,0,0,0-.046-.7,1.232,1.232,0,0,0-.439-.709,1.425,1.425,0,0,0-1.658-.01,1.164,1.164,0,0,0-.422.692A4.068,4.068,0,0,0,443.909,99.776Z" transform="translate(-436.143 -95.947)" fill="#001454"/>
      <path id="Path_4566" data-name="Path 4566" d="M459.151,98.085a1.5,1.5,0,0,1,.4,1.109v3.058a.108.108,0,0,1-.11.11h-.257a.109.109,0,0,1-.078-.031.111.111,0,0,1-.032-.078V99.284a1.158,1.158,0,0,0-.315-.856,1.11,1.11,0,0,0-.82-.316,1.187,1.187,0,0,0-.856.312,1.114,1.114,0,0,0-.325.842v2.986a.108.108,0,0,1-.11.11h-.257a.106.106,0,0,1-.078-.031.108.108,0,0,1-.032-.078V99.284a1.164,1.164,0,0,0-.312-.856,1.094,1.094,0,0,0-.815-.316,1.166,1.166,0,0,0-.856.312,1.128,1.128,0,0,0-.316.842v2.986a.111.111,0,0,1-.032.078.106.106,0,0,1-.078.031h-.266a.105.105,0,0,1-.078-.031.108.108,0,0,1-.033-.078v-4.4a.1.1,0,0,1,.033-.078.1.1,0,0,1,.078-.032h.266a.1.1,0,0,1,.078.032.106.106,0,0,1,.032.078v.394a.028.028,0,0,0,.019.027.018.018,0,0,0,.028-.009,1.192,1.192,0,0,1,.517-.439,1.776,1.776,0,0,1,.738-.147,1.562,1.562,0,0,1,.819.207,1.3,1.3,0,0,1,.518.581c.012.025.028.028.046.01a1.318,1.318,0,0,1,.558-.6,1.741,1.741,0,0,1,.852-.2A1.45,1.45,0,0,1,459.151,98.085Z" transform="translate(-438.7 -95.95)" fill="#001454"/>
      <path id="Path_4567" data-name="Path 4567" d="M470.6,100.041c0,.275-.006.5-.019.678a2.58,2.58,0,0,1-.072.476,1.606,1.606,0,0,1-.582.9,1.7,1.7,0,0,1-1.067.335,1.569,1.569,0,0,1-.718-.16,1.341,1.341,0,0,1-.518-.462.018.018,0,0,0-.028-.009.03.03,0,0,0-.019.028v2.216a.107.107,0,0,1-.031.078.11.11,0,0,1-.078.032H467.2a.108.108,0,0,1-.078-.032.1.1,0,0,1-.032-.078V97.852a.1.1,0,0,1,.032-.078.1.1,0,0,1,.078-.032h.266a.1.1,0,0,1,.078.032.106.106,0,0,1,.031.078v.43c0,.019,0,.03.014.033s.02,0,.032-.014a1.377,1.377,0,0,1,.518-.467,1.533,1.533,0,0,1,.718-.165,1.687,1.687,0,0,1,1.054.33,1.641,1.641,0,0,1,.586.888A4.9,4.9,0,0,1,470.6,100.041Zm-.517.715a5.608,5.608,0,0,0,.031-.706,6.016,6.016,0,0,0-.027-.673A2.361,2.361,0,0,0,470,98.96a1.1,1.1,0,0,0-.421-.623,1.258,1.258,0,0,0-.769-.238,1.1,1.1,0,0,0-.719.238,1.169,1.169,0,0,0-.389.623,1.625,1.625,0,0,0-.088.389c-.015.143-.023.374-.023.692a6.612,6.612,0,0,0,.028.71,1.945,1.945,0,0,0,.093.407,1.078,1.078,0,0,0,.384.609,1.11,1.11,0,0,0,.715.234,1.2,1.2,0,0,0,.742-.234,1.14,1.14,0,0,0,.421-.6A1.66,1.66,0,0,0,470.083,100.756Z" transform="translate(-442.153 -95.947)" fill="#001454"/>
      <path id="Path_4568" data-name="Path 4568" d="M477.081,101.741a.111.111,0,0,1-.032-.078V95.471a.108.108,0,0,1,.032-.078.11.11,0,0,1,.078-.032h.265a.109.109,0,0,1,.078.032.1.1,0,0,1,.032.078v6.192a.108.108,0,0,1-.11.11h-.265A.109.109,0,0,1,477.081,101.741Z" transform="translate(-444.682 -95.361)" fill="#001454"/>
      <path id="Path_4569" data-name="Path 4569" d="M485.6,101.8a1.205,1.205,0,0,0,.476-.545.108.108,0,0,1,.147-.054l.165.063c.072.031.094.08.063.146a1.625,1.625,0,0,1-.632.743,1.868,1.868,0,0,1-1.026.275,1.784,1.784,0,0,1-1.067-.312,1.626,1.626,0,0,1-.609-.852,4.481,4.481,0,0,1-.128-1.227q0-.449.014-.678a2.42,2.42,0,0,1,.06-.421,1.641,1.641,0,0,1,.6-.925,1.773,1.773,0,0,1,1.113-.348,1.642,1.642,0,0,1,1.749,1.438,3.03,3.03,0,0,1,.05.38q.013.2.013.6c0,.079-.036.119-.11.119H483.5a.032.032,0,0,0-.037.037,4.415,4.415,0,0,0,.046.788,1.207,1.207,0,0,0,.449.709,1.374,1.374,0,0,0,.87.271A1.511,1.511,0,0,0,485.6,101.8Zm-2.134-2.029a.033.033,0,0,0,.037.037h2.556a.033.033,0,0,0,.036-.037,3.862,3.862,0,0,0-.046-.7,1.228,1.228,0,0,0-.439-.709,1.426,1.426,0,0,0-1.658-.01,1.162,1.162,0,0,0-.421.692A4.033,4.033,0,0,0,483.468,99.776Z" transform="translate(-446.191 -95.947)" fill="#001454"/>
      <path id="Path_4570" data-name="Path 4570" d="M499.385,102.093a1.682,1.682,0,0,1-.618-.906,4.337,4.337,0,0,1-.11-1.145,5,5,0,0,1,.1-1.136,1.658,1.658,0,0,1,.623-.9,1.986,1.986,0,0,1,2.212,0,1.615,1.615,0,0,1,.618.9,6.455,6.455,0,0,1,0,2.281,1.611,1.611,0,0,1-.618.906,1.812,1.812,0,0,1-1.1.339A1.793,1.793,0,0,1,499.385,102.093Zm1.933-.357a1.2,1.2,0,0,0,.445-.714,5.554,5.554,0,0,0,.055-.971,5.358,5.358,0,0,0-.055-.971,1.2,1.2,0,0,0-.445-.714,1.324,1.324,0,0,0-.838-.266,1.307,1.307,0,0,0-.833.266,1.208,1.208,0,0,0-.439.714,8.57,8.57,0,0,0,0,1.942,1.208,1.208,0,0,0,.439.714,1.444,1.444,0,0,0,1.671,0Z" transform="translate(-450.171 -95.947)" fill="#001454"/>
      <path id="Path_4571" data-name="Path 4571" d="M509.576,96.048a1.382,1.382,0,0,0-.2.833v.238a.033.033,0,0,0,.037.037h1.053a.1.1,0,0,1,.078.032.1.1,0,0,1,.033.078V97.5a.111.111,0,0,1-.11.11h-1.053a.032.032,0,0,0-.037.037v4.021a.108.108,0,0,1-.11.11H509a.108.108,0,0,1-.11-.11V97.641a.032.032,0,0,0-.037-.037h-.586a.109.109,0,0,1-.11-.11v-.229a.1.1,0,0,1,.032-.078.1.1,0,0,1,.078-.032h.586a.033.033,0,0,0,.037-.037v-.256a2.445,2.445,0,0,1,.124-.862.889.889,0,0,1,.421-.48,1.791,1.791,0,0,1,.838-.16h.22a.109.109,0,0,1,.078.032.1.1,0,0,1,.032.078v.211a.109.109,0,0,1-.11.11h-.184A.884.884,0,0,0,509.576,96.048Z" transform="translate(-452.585 -95.361)" fill="#001454"/>
      <path id="Path_4572" data-name="Path 4572" d="M524.876,98.086a1.505,1.505,0,0,1,.422,1.122v3.041a.11.11,0,0,1-.11.11h-.266a.106.106,0,0,1-.078-.031.108.108,0,0,1-.032-.078v-.393a.028.028,0,0,0-.014-.028c-.009-.007-.019,0-.031.009a1.482,1.482,0,0,1-.633.444,2.328,2.328,0,0,1-.842.151,1.757,1.757,0,0,1-1.071-.316,1.138,1.138,0,0,1-.431-.985,1.289,1.289,0,0,1,.5-1.071,2.193,2.193,0,0,1,1.383-.394h1.1a.032.032,0,0,0,.036-.037v-.413a1.136,1.136,0,0,0-.284-.819,1.173,1.173,0,0,0-.888-.3,1.435,1.435,0,0,0-.77.188.79.79,0,0,0-.375.508c-.019.074-.061.1-.128.092l-.284-.037c-.08-.013-.113-.045-.1-.1a1.179,1.179,0,0,1,.541-.783,2,2,0,0,1,1.126-.3A1.672,1.672,0,0,1,524.876,98.086Zm-.49,3.64a.9.9,0,0,0,.426-.788v-.833a.032.032,0,0,0-.036-.037h-1.044a1.828,1.828,0,0,0-1.058.275.875.875,0,0,0-.4.76.789.789,0,0,0,.311.678,1.31,1.31,0,0,0,.8.229A1.764,1.764,0,0,0,524.386,101.726Z" transform="translate(-456.047 -95.947)" fill="#001454"/>
      <path id="Path_4573" data-name="Path 4573" d="M534.057,97.819a.1.1,0,0,1,.055.137l-.072.266c-.019.072-.065.095-.137.063a1.291,1.291,0,0,0-.44-.054,1.106,1.106,0,0,0-.847.389,1.36,1.36,0,0,0-.335.93v2.711a.11.11,0,0,1-.032.078.106.106,0,0,1-.078.031h-.265a.106.106,0,0,1-.078-.031.109.109,0,0,1-.033-.078v-4.4a.1.1,0,0,1,.033-.078.1.1,0,0,1,.078-.032h.265a.1.1,0,0,1,.078.032.106.106,0,0,1,.032.078v.6c0,.019,0,.029.014.032s.016,0,.023-.023a1.494,1.494,0,0,1,.5-.558,1.279,1.279,0,0,1,.718-.2A1.327,1.327,0,0,1,534.057,97.819Z" transform="translate(-458.589 -95.96)" fill="#001454"/>
      <path id="Path_4574" data-name="Path 4574" d="M541.5,97.748a.1.1,0,0,1-.077.032h-1.053a.032.032,0,0,0-.036.037V100.7a.845.845,0,0,0,.21.654,1.006,1.006,0,0,0,.678.188h.192a.108.108,0,0,1,.078.032.105.105,0,0,1,.032.078v.21a.1.1,0,0,1-.11.11l-.256.009a1.587,1.587,0,0,1-.962-.247,1.089,1.089,0,0,1-.339-.906V97.817a.032.032,0,0,0-.037-.037h-.532a.105.105,0,0,1-.078-.032.108.108,0,0,1-.032-.078v-.192a.107.107,0,0,1,.032-.078.1.1,0,0,1,.078-.032h.532a.033.033,0,0,0,.037-.037V96.306a.1.1,0,0,1,.032-.078.1.1,0,0,1,.077-.032h.257a.111.111,0,0,1,.111.11v1.026a.033.033,0,0,0,.036.037h1.053a.1.1,0,0,1,.077.032.1.1,0,0,1,.033.078v.192A.1.1,0,0,1,541.5,97.748Z" transform="translate(-460.463 -95.573)" fill="#001454"/>
      <path id="Path_4575" data-name="Path 4575" d="M547.993,102.256a1.411,1.411,0,0,1-.591-.435.973.973,0,0,1-.21-.6v-.1a.1.1,0,0,1,.032-.078.107.107,0,0,1,.078-.032h.257a.113.113,0,0,1,.078.028.082.082,0,0,1,.032.064v.1a.71.71,0,0,0,.334.577,1.4,1.4,0,0,0,.856.248,1.347,1.347,0,0,0,.839-.248.746.746,0,0,0,.325-.613.571.571,0,0,0-.165-.421,1.117,1.117,0,0,0-.394-.252q-.229-.087-.678-.224a7.861,7.861,0,0,1-.824-.293,1.447,1.447,0,0,1-.526-.389.942.942,0,0,1-.216-.637,1.061,1.061,0,0,1,.444-.892,1.893,1.893,0,0,1,1.168-.335,2.143,2.143,0,0,1,.856.16,1.39,1.39,0,0,1,.577.435,1.008,1.008,0,0,1,.206.623v.009a.106.106,0,0,1-.032.078.1.1,0,0,1-.077.032h-.247a.156.156,0,0,1-.078-.018.053.053,0,0,1-.032-.046v-.055a.693.693,0,0,0-.325-.581A1.683,1.683,0,0,0,548,98.336a.673.673,0,0,0-.311.581.569.569,0,0,0,.288.522,4.146,4.146,0,0,0,.9.358,8.015,8.015,0,0,1,.856.288,1.5,1.5,0,0,1,.544.389.951.951,0,0,1,.229.659,1.123,1.123,0,0,1-.448.929,1.872,1.872,0,0,1-1.191.353A2.241,2.241,0,0,1,547.993,102.256Z" transform="translate(-462.5 -95.96)" fill="#001454"/>
    </g>
    <g id="Group_430" data-name="Group 430" transform="translate(421.405 82.653)">
      <g id="Group_429" data-name="Group 429">
        <g id="Group_428" data-name="Group 428" clip-path="url(#clip-path)">
          <path id="Path_4576" data-name="Path 4576" d="M432.643,95.359v0Z" transform="translate(-432.643 -95.359)" fill="#00114e"/>
          <rect id="Rectangle_402" data-name="Rectangle 402" width="1.979" height="0.428" fill="#00114e"/>
          <rect id="Rectangle_403" data-name="Rectangle 403" width="1.979" height="0.428" transform="translate(1.979)" fill="#00124f"/>
          <rect id="Rectangle_404" data-name="Rectangle 404" width="1.979" height="0.428" transform="translate(3.957)" fill="#011250"/>
          <rect id="Rectangle_405" data-name="Rectangle 405" width="1.979" height="0.428" transform="translate(5.936)" fill="#011351"/>
          <rect id="Rectangle_406" data-name="Rectangle 406" width="1.979" height="0.428" transform="translate(7.914)" fill="#011352"/>
          <rect id="Rectangle_407" data-name="Rectangle 407" width="1.979" height="0.428" transform="translate(9.893)" fill="#021453"/>
          <rect id="Rectangle_408" data-name="Rectangle 408" width="1.979" height="0.428" transform="translate(11.871)" fill="#021454"/>
          <rect id="Rectangle_409" data-name="Rectangle 409" width="1.979" height="0.428" transform="translate(13.85)" fill="#021555"/>
          <rect id="Rectangle_410" data-name="Rectangle 410" width="1.979" height="0.428" transform="translate(15.828)" fill="#031556"/>
          <rect id="Rectangle_411" data-name="Rectangle 411" width="1.979" height="0.428" transform="translate(17.807)" fill="#031657"/>
          <rect id="Rectangle_412" data-name="Rectangle 412" width="1.979" height="0.428" transform="translate(19.785)" fill="#031658"/>
          <rect id="Rectangle_413" data-name="Rectangle 413" width="1.979" height="0.428" transform="translate(21.764)" fill="#031759"/>
          <rect id="Rectangle_414" data-name="Rectangle 414" width="1.979" height="0.428" transform="translate(23.742)" fill="#04175a"/>
          <rect id="Rectangle_415" data-name="Rectangle 415" width="1.979" height="0.428" transform="translate(25.721)" fill="#04185b"/>
          <rect id="Rectangle_416" data-name="Rectangle 416" width="1.979" height="0.428" transform="translate(27.699)" fill="#04185c"/>
          <rect id="Rectangle_417" data-name="Rectangle 417" width="1.979" height="0.428" transform="translate(29.678)" fill="#05195d"/>
          <rect id="Rectangle_418" data-name="Rectangle 418" width="1.979" height="0.428" transform="translate(31.656)" fill="#05195e"/>
          <rect id="Rectangle_419" data-name="Rectangle 419" width="1.979" height="0.428" transform="translate(33.635)" fill="#051a5f"/>
          <rect id="Rectangle_420" data-name="Rectangle 420" width="1.979" height="0.428" transform="translate(35.613)" fill="#061a60"/>
          <rect id="Rectangle_421" data-name="Rectangle 421" width="1.979" height="0.428" transform="translate(37.592)" fill="#061b61"/>
          <rect id="Rectangle_422" data-name="Rectangle 422" width="1.979" height="0.428" transform="translate(39.57)" fill="#061b62"/>
          <rect id="Rectangle_423" data-name="Rectangle 423" width="1.979" height="0.428" transform="translate(41.549)" fill="#071c63"/>
          <rect id="Rectangle_424" data-name="Rectangle 424" width="1.979" height="0.428" transform="translate(43.527)" fill="#071c64"/>
          <rect id="Rectangle_425" data-name="Rectangle 425" width="1.979" height="0.428" transform="translate(45.506)" fill="#071d65"/>
          <rect id="Rectangle_426" data-name="Rectangle 426" width="1.979" height="0.428" transform="translate(47.484)" fill="#081d66"/>
          <rect id="Rectangle_427" data-name="Rectangle 427" width="1.979" height="0.428" transform="translate(49.463)" fill="#081e67"/>
          <rect id="Rectangle_428" data-name="Rectangle 428" width="1.979" height="0.428" transform="translate(51.441)" fill="#081f68"/>
          <rect id="Rectangle_429" data-name="Rectangle 429" width="1.979" height="0.428" transform="translate(53.42)" fill="#091f6a"/>
          <rect id="Rectangle_430" data-name="Rectangle 430" width="1.979" height="0.428" transform="translate(55.398)" fill="#09206b"/>
          <rect id="Rectangle_431" data-name="Rectangle 431" width="1.979" height="0.428" transform="translate(57.377)" fill="#09206c"/>
          <rect id="Rectangle_432" data-name="Rectangle 432" width="1.979" height="0.428" transform="translate(59.355)" fill="#0a216d"/>
          <rect id="Rectangle_433" data-name="Rectangle 433" width="1.979" height="0.428" transform="translate(61.334)" fill="#0a216e"/>
          <rect id="Rectangle_434" data-name="Rectangle 434" width="1.979" height="0.428" transform="translate(63.312)" fill="#0a226f"/>
          <rect id="Rectangle_435" data-name="Rectangle 435" width="1.979" height="0.428" transform="translate(65.291)" fill="#0a2270"/>
          <rect id="Rectangle_436" data-name="Rectangle 436" width="1.979" height="0.428" transform="translate(67.269)" fill="#0b2371"/>
          <rect id="Rectangle_437" data-name="Rectangle 437" width="1.979" height="0.428" transform="translate(69.248)" fill="#0b2372"/>
          <rect id="Rectangle_438" data-name="Rectangle 438" width="1.979" height="0.428" transform="translate(71.227)" fill="#0b2473"/>
          <rect id="Rectangle_439" data-name="Rectangle 439" width="1.979" height="0.428" transform="translate(73.205)" fill="#0c2474"/>
          <rect id="Rectangle_440" data-name="Rectangle 440" width="1.979" height="0.428" transform="translate(75.184)" fill="#0c2575"/>
          <rect id="Rectangle_441" data-name="Rectangle 441" width="1.979" height="0.428" transform="translate(77.162)" fill="#0c2576"/>
          <rect id="Rectangle_442" data-name="Rectangle 442" width="1.979" height="0.428" transform="translate(79.141)" fill="#0d2677"/>
          <rect id="Rectangle_443" data-name="Rectangle 443" width="1.979" height="0.428" transform="translate(81.119)" fill="#0d2678"/>
          <rect id="Rectangle_444" data-name="Rectangle 444" width="1.979" height="0.428" transform="translate(83.098)" fill="#0d2779"/>
          <rect id="Rectangle_445" data-name="Rectangle 445" width="1.979" height="0.428" transform="translate(85.076)" fill="#0e277a"/>
          <rect id="Rectangle_446" data-name="Rectangle 446" width="1.979" height="0.428" transform="translate(87.055)" fill="#0e287b"/>
          <path id="Path_4577" data-name="Path 4577" d="M551.995,95.787v0Z" transform="translate(-462.962 -95.359)" fill="#0e287b"/>
        </g>
      </g>
    </g>
    <g id="Group_431" data-name="Group 431" transform="translate(388.403 45.34)">
      <path id="Path_4578" data-name="Path 4578" d="M393.823,73.516s2.463,1.251,14.179-1.522c2.6-.616,4.354-.988,5.993-.741,0,0,1.452,1.517-1.787,2.91a51.228,51.228,0,0,0-7.769,4.729s-6.541,1.677-7.153,1.629-3.3.282-4.782-2.11S393.823,73.516,393.823,73.516Z" transform="translate(-389.335 -51.903)" fill="url(#linear-gradient)"/>
      <path id="Path_4579" data-name="Path 4579" d="M401.128,78.359c-6.949,1.75-6.741.112-6.741.112s-.791-1.251-1.547-2.6A3.358,3.358,0,0,0,392.5,79.6c1.487,2.392,4.17,2.063,4.782,2.11s7.153-1.629,7.153-1.629a57.807,57.807,0,0,1,6.7-4.227C408.632,76.38,405.082,77.364,401.128,78.359Z" transform="translate(-389.335 -53.091)" fill="url(#linear-gradient-2)"/>
      <path id="Path_4580" data-name="Path 4580" d="M412.179,45.34s5.632,6.358-5.539,14.649c-11.98,8.891-15.083,14.068-10.159,13.965,0,0-6.9,1.7-7.976-4.911-.632-3.895,1.926-6.233,5.121-8.875A228.813,228.813,0,0,0,412.179,45.34Z" transform="translate(-388.405 -45.34)" fill="url(#linear-gradient-3)"/>
      <path id="Path_4581" data-name="Path 4581" d="M411.363,90.589s-3.787,6.474,3.187,11.619a.076.076,0,0,1-.067.134,27.275,27.275,0,0,1-4.312-1.94C406.262,97.309,409.172,92.98,411.363,90.589Z" transform="translate(-393.445 -56.835)" fill="url(#linear-gradient-4)"/>
      <path id="Path_4582" data-name="Path 4582" d="M420.849,74.647c-.237-3.038-4.371-3.42-4.371-3.42,2.486,1.361-5.179,3-10.781,9.266a9.459,9.459,0,0,0-2.38,9.009c1.212,3.978,5.52,5.982,5.52,5.982C401.972,85.6,421.262,80.246,420.849,74.647Z" transform="translate(-392.112 -51.916)" fill="url(#linear-gradient-5)"/>
      <path id="Path_4583" data-name="Path 4583" d="M420.849,74.647c-.219-3.029-4.371-3.42-4.371-3.42,2.486,1.361-5.179,3-10.781,9.266a9.459,9.459,0,0,0-2.38,9.009c1.148,3.911,5.52,5.982,5.52,5.982C402.1,85.67,420.765,80.466,420.849,74.647Z" transform="translate(-392.112 -51.916)" fill="url(#linear-gradient-6)"/>
      <path id="Path_4584" data-name="Path 4584" d="M400.28,59.189c12.9-9.208,11.9-13.849,11.9-13.849-6.621,6.312-18.553,14.828-18.553,14.828-3.329,2.759-5.753,4.98-5.121,8.875,1.072,6.609,7.976,4.911,7.976,4.911C388.4,75.363,386.951,68.7,400.28,59.189Z" transform="translate(-388.403 -45.34)" fill="url(#linear-gradient-7)"/>
      <path id="Path_4585" data-name="Path 4585" d="M417.83,75.369c2.389-1.549,1.126-3.128,1-3.235a5.868,5.868,0,0,0-2.35-.907c2.486,1.361-5.179,3-10.781,9.266a9.459,9.459,0,0,0-2.38,9.009c1.122,3.884,5.52,5.982,5.52,5.982C396.151,88.064,414.834,77.313,417.83,75.369Z" transform="translate(-392.112 -51.916)" fill="url(#linear-gradient-8)"/>
    </g>
  </g>
</svg>
