<svg xmlns="http://www.w3.org/2000/svg" xmlns:xlink="http://www.w3.org/1999/xlink" viewBox="0 0 97.32 37.51"><defs><style>.cls-1{fill:#1951de;}.cls-2{fill:#1a1e50;}.cls-3{fill:url(#linear-gradient);}</style><linearGradient id="linear-gradient" y1="18.75" x2="24.49" y2="18.75" gradientUnits="userSpaceOnUse"><stop offset="0" stop-color="#1951de"/><stop offset="0.2" stop-color="#1a5ae0"/><stop offset="0.76" stop-color="#2cc0f9"/><stop offset="1" stop-color="#2eccfc"/></linearGradient></defs><title>Asset 59SCM</title><g id="Layer_2" data-name="Layer 2"><g id="Layer_1-2" data-name="Layer 1"><path class="cls-1" d="M31.51,17.16a2.26,2.26,0,0,1-1-.78,2,2,0,0,1-.35-1.17v-.27a.17.17,0,0,1,.05-.13.16.16,0,0,1,.12,0h.73a.2.2,0,0,1,.13,0,.17.17,0,0,1,0,.13v.21a1.16,1.16,0,0,0,.5,1,2.18,2.18,0,0,0,1.33.37,1.84,1.84,0,0,0,1.19-.33,1.07,1.07,0,0,0,.4-.86.88.88,0,0,0-.21-.6,1.86,1.86,0,0,0-.6-.46,9.73,9.73,0,0,0-1.14-.51,12.23,12.23,0,0,1-1.32-.58,2.55,2.55,0,0,1-.8-.69,1.75,1.75,0,0,1-.32-1.08A1.86,1.86,0,0,1,31,9.84a3,3,0,0,1,1.9-.56,3.62,3.62,0,0,1,1.48.28,2.3,2.3,0,0,1,1,.8,2.07,2.07,0,0,1,.35,1.18v.18a.17.17,0,0,1-.17.17h-.74a.25.25,0,0,1-.13,0,.15.15,0,0,1,0-.11V11.6a1.24,1.24,0,0,0-.47-1,2,2,0,0,0-1.31-.4,1.81,1.81,0,0,0-1.09.29,1,1,0,0,0-.39.84,1,1,0,0,0,.2.62,1.63,1.63,0,0,0,.57.42c.26.13.64.29,1.17.49a12.66,12.66,0,0,1,1.31.58,2.59,2.59,0,0,1,.83.71,1.75,1.75,0,0,1,.33,1.09,2,2,0,0,1-.33,1.13,2.19,2.19,0,0,1-1,.77,3.67,3.67,0,0,1-1.47.27A3.81,3.81,0,0,1,31.51,17.16Z"/><path class="cls-1" d="M41.63,17.21l-1.57-3.37a.07.07,0,0,0-.07,0h-1.6a.05.05,0,0,0-.06.06v3.31a.16.16,0,0,1,0,.12.21.21,0,0,1-.13.05h-.75a.19.19,0,0,1-.13-.05.16.16,0,0,1,0-.12V9.53a.15.15,0,0,1,.17-.17h3a2.42,2.42,0,0,1,1.2.28,2,2,0,0,1,.81.8,2.39,2.39,0,0,1,.28,1.18A2.14,2.14,0,0,1,42.28,13a2.06,2.06,0,0,1-1.14.75.05.05,0,0,0,0,.07l1.61,3.35,0,.09q0,.12-.15.12h-.77A.2.2,0,0,1,41.63,17.21Zm-3.3-6.85v2.53s0,0,.06,0h1.89a1.33,1.33,0,0,0,1-.36,1.25,1.25,0,0,0,.37-.94,1.27,1.27,0,0,0-.37-1,1.3,1.3,0,0,0-1-.37H38.39A.05.05,0,0,0,38.33,10.36Z"/><path class="cls-1" d="M49.46,10.27a.17.17,0,0,1-.12.05h-4s-.06,0-.06,0V12.8s0,0,.06,0h2.7a.17.17,0,0,1,.13.05.17.17,0,0,1,0,.12v.61a.17.17,0,0,1,0,.12.17.17,0,0,1-.13.05h-2.7a.05.05,0,0,0-.06.06v2.48s0,.05.06.05h4a.17.17,0,0,1,.17.17v.61a.17.17,0,0,1-.17.17h-5a.17.17,0,0,1-.13-.05.16.16,0,0,1,0-.12V9.54a.16.16,0,0,1,0-.12.17.17,0,0,1,.13-.05h5a.17.17,0,0,1,.17.17v.6A.17.17,0,0,1,49.46,10.27Z"/><path class="cls-1" d="M56.27,10.27a.17.17,0,0,1-.13.05h-4s-.05,0-.05,0V12.8s0,0,.05,0h2.71a.19.19,0,0,1,.13.05.16.16,0,0,1,0,.12v.61a.16.16,0,0,1,0,.12.19.19,0,0,1-.13.05H52.17s-.05,0-.05.06v2.48s0,.05.05.05h4a.17.17,0,0,1,.13.05.17.17,0,0,1,0,.12v.61a.17.17,0,0,1,0,.12.17.17,0,0,1-.13.05h-5a.17.17,0,0,1-.17-.17V9.54a.17.17,0,0,1,.17-.17h5a.17.17,0,0,1,.13.05.17.17,0,0,1,0,.12v.6A.17.17,0,0,1,56.27,10.27Z"/><path class="cls-1" d="M57.87,17.29a.16.16,0,0,1,0-.12V9.54a.16.16,0,0,1,0-.12A.19.19,0,0,1,58,9.37h.73a.22.22,0,0,1,.2.11l3.49,5.64a.05.05,0,0,0,0,0s0,0,0-.05V9.54a.17.17,0,0,1,.05-.12.17.17,0,0,1,.13-.05h.75a.17.17,0,0,1,.17.17v7.63a.17.17,0,0,1-.17.17h-.74a.24.24,0,0,1-.21-.12L59,11.56s0,0,0,0,0,0,0,.05v5.59a.16.16,0,0,1,0,.12.19.19,0,0,1-.13.05H58A.19.19,0,0,1,57.87,17.29Z"/><path class="cls-1" d="M70.56,10.27a.21.21,0,0,1-.13.05h-4s-.06,0-.06,0V12.8s0,0,.06,0h2.71a.17.17,0,0,1,.17.17v.61a.17.17,0,0,1-.17.17H66.46a.05.05,0,0,0-.06.06v2.48s0,.05.06.05h4a.21.21,0,0,1,.13.05.16.16,0,0,1,0,.12v.61a.16.16,0,0,1,0,.12.21.21,0,0,1-.13.05h-5a.19.19,0,0,1-.13-.05.16.16,0,0,1,0-.12V9.54a.16.16,0,0,1,0-.12.19.19,0,0,1,.13-.05h5a.21.21,0,0,1,.13.05.16.16,0,0,1,0,.12v.6A.17.17,0,0,1,70.56,10.27Z"/><path class="cls-1" d="M74.11,17.2,71.69,9.56a.35.35,0,0,1,0-.06c0-.09,0-.13.16-.13h.81a.16.16,0,0,1,.12,0,.14.14,0,0,1,.07.11l1.87,6.2s0,0,0,0,0,0,0,0l1.85-6.2a.16.16,0,0,1,.07-.11.2.2,0,0,1,.13,0h.78c.14,0,.19.06.15.19L75.32,17.2a.18.18,0,0,1-.19.14H74.3A.18.18,0,0,1,74.11,17.2Z"/><path class="cls-1" d="M82.79,17.2l-.4-1.27s0,0,0,0H79.16s0,0-.06,0l-.4,1.27a.18.18,0,0,1-.19.14H77.7c-.13,0-.17-.07-.13-.19L80,9.51a.18.18,0,0,1,.19-.14h1a.19.19,0,0,1,.19.14l2.48,7.64s0,0,0,.06,0,.13-.15.13H83A.2.2,0,0,1,82.79,17.2ZM79.44,15h2.61s.06,0,0-.07L80.78,10.7s0,0,0,0,0,0,0,0L79.4,15S79.41,15,79.44,15Z"/><path class="cls-1" d="M85.8,17.16a2.23,2.23,0,0,1-1-.78,2,2,0,0,1-.35-1.17v-.27a.17.17,0,0,1,.05-.13.17.17,0,0,1,.13,0h.72a.15.15,0,0,1,.17.17v.21a1.14,1.14,0,0,0,.51,1,2.14,2.14,0,0,0,1.33.37,1.81,1.81,0,0,0,1.18-.33,1,1,0,0,0,.4-.86.88.88,0,0,0-.21-.6,1.81,1.81,0,0,0-.59-.46A10,10,0,0,0,87,13.72a11.94,11.94,0,0,1-1.31-.58,2.55,2.55,0,0,1-.8-.69,1.69,1.69,0,0,1-.32-1.08,1.84,1.84,0,0,1,.7-1.53,3,3,0,0,1,1.89-.56,3.59,3.59,0,0,1,1.48.28,2.27,2.27,0,0,1,1,.8A2.07,2.07,0,0,1,90,11.54v.18a.16.16,0,0,1,0,.12.17.17,0,0,1-.13.05h-.74a.21.21,0,0,1-.12,0,.16.16,0,0,1,0-.11V11.6a1.24,1.24,0,0,0-.47-1,2,2,0,0,0-1.3-.4,1.84,1.84,0,0,0-1.1.29,1,1,0,0,0-.38.84,1,1,0,0,0,.19.62,1.58,1.58,0,0,0,.58.42c.25.13.64.29,1.16.49a11.76,11.76,0,0,1,1.31.58,2.49,2.49,0,0,1,.83.71A1.75,1.75,0,0,1,90,15.26a2,2,0,0,1-.33,1.13,2.22,2.22,0,0,1-.95.77,3.71,3.71,0,0,1-1.47.27A3.78,3.78,0,0,1,85.8,17.16Z"/><path class="cls-1" d="M96.16,17.2l-.4-1.27s0,0-.05,0H92.53s0,0-.06,0l-.4,1.27a.18.18,0,0,1-.19.14h-.81c-.13,0-.17-.07-.13-.19l2.45-7.64a.2.2,0,0,1,.2-.14h1a.19.19,0,0,1,.19.14l2.48,7.64s0,0,0,.06,0,.13-.15.13h-.82A.19.19,0,0,1,96.16,17.2ZM92.81,15h2.61s.06,0,0-.07L94.15,10.7s0,0,0,0,0,0,0,0L92.77,15S92.78,15,92.81,15Z"/><path class="cls-2" d="M30.22,30a.16.16,0,0,1,0-.12V23a.14.14,0,0,1,.15-.15H31a.14.14,0,0,1,.15.15v6.86a.16.16,0,0,1,0,.12A.18.18,0,0,1,31,30h-.68A.18.18,0,0,1,30.22,30Z"/><path class="cls-2" d="M36.11,30a.16.16,0,0,1,0-.12V23a.14.14,0,0,1,0-.11.15.15,0,0,1,.11,0h.66a.19.19,0,0,1,.18.1L40.2,28a.05.05,0,0,0,0,0,.06.06,0,0,0,0,0V23a.14.14,0,0,1,0-.11.15.15,0,0,1,.11,0h.68a.14.14,0,0,1,.15.15v6.86a.16.16,0,0,1,0,.12.18.18,0,0,1-.11,0h-.67a.21.21,0,0,1-.18-.1L37.1,24.82s0,0,0,0,0,0,0,0v5A.16.16,0,0,1,37,30a.18.18,0,0,1-.11,0h-.68A.21.21,0,0,1,36.11,30Z"/><path class="cls-2" d="M50.74,23.67a.21.21,0,0,1-.11,0H47.06s-.05,0-.05.05v2.18a0,0,0,0,0,.05,0h2.43a.14.14,0,0,1,.15.16v.54a.14.14,0,0,1,0,.11.12.12,0,0,1-.11,0H47.06a0,0,0,0,0-.05.05v3A.16.16,0,0,1,47,30a.21.21,0,0,1-.11,0h-.68a.18.18,0,0,1-.11,0,.16.16,0,0,1,0-.12V23a.14.14,0,0,1,.15-.15h4.45a.15.15,0,0,1,.11,0,.14.14,0,0,1,0,.11v.54A.16.16,0,0,1,50.74,23.67Z"/><path class="cls-2" d="M56,29.81a2.19,2.19,0,0,1-.9-.86,2.57,2.57,0,0,1-.31-1.29V25.22a2.55,2.55,0,0,1,.31-1.28,2.26,2.26,0,0,1,.9-.86,2.8,2.8,0,0,1,1.32-.31,2.84,2.84,0,0,1,1.33.31,2.23,2.23,0,0,1,.89.86,2.56,2.56,0,0,1,.32,1.28v2.44A2.57,2.57,0,0,1,59.57,29a2.17,2.17,0,0,1-.89.86,2.72,2.72,0,0,1-1.33.31A2.68,2.68,0,0,1,56,29.81Zm2.44-1a1.54,1.54,0,0,0,.43-1.14V25.21a1.56,1.56,0,0,0-.43-1.15,1.49,1.49,0,0,0-1.12-.43,1.48,1.48,0,0,0-1.12.43,1.56,1.56,0,0,0-.43,1.15V27.7a1.54,1.54,0,0,0,.43,1.14,1.48,1.48,0,0,0,1.12.43A1.49,1.49,0,0,0,58.47,28.84Z"/><path class="cls-2" d="M69.07,22.9a.18.18,0,0,1,0,.11v.55a.14.14,0,0,1-.16.16h-1.9s0,0,0,.05v6.1a.14.14,0,0,1-.16.16h-.67a.14.14,0,0,1-.16-.16v-6.1s0-.05-.05-.05H64.15a.14.14,0,0,1-.15-.16V23a.14.14,0,0,1,0-.11.12.12,0,0,1,.11,0H69A.16.16,0,0,1,69.07,22.9Z"/><path class="cls-2" d="M78.28,23.67a.21.21,0,0,1-.12,0H74.59s0,0,0,.05v2.18s0,0,0,0H77a.21.21,0,0,1,.11,0,.16.16,0,0,1,0,.12v.54a.14.14,0,0,1,0,.11.15.15,0,0,1-.11,0H74.59s0,0,0,.05v2.24s0,.05,0,.05h3.57a.16.16,0,0,1,.12,0,.18.18,0,0,1,0,.11v.54a.14.14,0,0,1-.16.16H73.71a.14.14,0,0,1-.16-.16V23a.18.18,0,0,1,0-.11.16.16,0,0,1,.12,0h4.45a.16.16,0,0,1,.12,0,.18.18,0,0,1,0,.11v.54A.21.21,0,0,1,78.28,23.67Z"/><path class="cls-2" d="M83.91,29.83A2.08,2.08,0,0,1,83,29a2.41,2.41,0,0,1-.32-1.24V25.11A2.34,2.34,0,0,1,83,23.89a2,2,0,0,1,.88-.82,2.74,2.74,0,0,1,1.3-.3,2.83,2.83,0,0,1,1.3.29,2,2,0,0,1,.88.79A2.22,2.22,0,0,1,87.7,25q0,.11-.15.12l-.68,0h0a.11.11,0,0,1-.08,0,.05.05,0,0,1,0,0v-.06A1.43,1.43,0,0,0,86.31,24a1.52,1.52,0,0,0-1.1-.39,1.54,1.54,0,0,0-1.1.39,1.39,1.39,0,0,0-.41,1.06V27.8a1.39,1.39,0,0,0,.41,1.06,1.5,1.5,0,0,0,1.1.4,1.49,1.49,0,0,0,1.1-.4,1.43,1.43,0,0,0,.41-1.06.1.1,0,0,1,0-.09.18.18,0,0,1,.11,0l.68,0c.1,0,.15,0,.15.05v.06A2.25,2.25,0,0,1,87.39,29a2.13,2.13,0,0,1-.88.8,2.83,2.83,0,0,1-1.3.29A2.86,2.86,0,0,1,83.91,29.83Z"/><path class="cls-2" d="M96.38,22.9a.14.14,0,0,1,.11,0h.68a.14.14,0,0,1,.15.15v6.86a.16.16,0,0,1,0,.12.18.18,0,0,1-.11,0h-.68a.18.18,0,0,1-.11,0,.16.16,0,0,1,0-.12v-3a0,0,0,0,0,0-.05h-2.9s0,0,0,.05v3a.14.14,0,0,1-.16.16h-.67a.14.14,0,0,1-.16-.16V23a.18.18,0,0,1,0-.11.16.16,0,0,1,.12,0h.67a.16.16,0,0,1,.12,0,.18.18,0,0,1,0,.11v2.93s0,0,0,0h2.9a0,0,0,0,0,0,0V23A.14.14,0,0,1,96.38,22.9Z"/><path class="cls-2" d="M34.06,31.94V32a.05.05,0,0,1-.06.06H32.74a0,0,0,0,0,0,0v4.07c0,.05,0,.07-.06.07h-.12s-.06,0-.06-.07V32.12a0,0,0,0,0,0,0h-1.2s-.07,0-.07-.06v-.09a.06.06,0,0,1,.07-.07H34S34.06,31.9,34.06,31.94Z"/><path class="cls-2" d="M38.28,35.94a.93.93,0,0,0,.35-.41.05.05,0,0,1,.07,0l.09,0s.05,0,0,.08a1,1,0,0,1-.42.51,1.24,1.24,0,0,1-.69.2,1.19,1.19,0,0,1-.72-.22,1.08,1.08,0,0,1-.41-.59,3.34,3.34,0,0,1-.07-.82c0-.19,0-.35,0-.46a2.36,2.36,0,0,1,0-.31,1,1,0,0,1,.4-.61,1.15,1.15,0,0,1,.74-.24,1.23,1.23,0,0,1,.77.25,1.17,1.17,0,0,1,.39.66c0,.08,0,.17,0,.28v.43s0,.07-.06.07H36.79s0,0,0,0,0,.26,0,.37a.67.67,0,0,0,0,.23.83.83,0,0,0,.3.52,1,1,0,0,0,.63.2A1,1,0,0,0,38.28,35.94ZM37.1,33.48a.84.84,0,0,0-.3.5,2.7,2.7,0,0,0,0,.54,0,0,0,0,0,0,0h1.85s0,0,0,0a2.79,2.79,0,0,0,0-.52.89.89,0,0,0-.31-.52,1,1,0,0,0-.61-.2A.93.93,0,0,0,37.1,33.48Z"/><path class="cls-2" d="M45.8,33.34a1,1,0,0,1,.28.75v2.1c0,.05,0,.07-.06.07H45.9s-.06,0-.06-.07V34.13a.84.84,0,0,0-.23-.61.81.81,0,0,0-.59-.23.85.85,0,0,0-.63.22.78.78,0,0,0-.23.61v2.07c0,.05,0,.07-.07.07H44s-.07,0-.07-.07V34.13a.83.83,0,0,0-.22-.61.81.81,0,0,0-.59-.23.88.88,0,0,0-.63.22.82.82,0,0,0-.23.61v2.07c0,.05,0,.07-.06.07h-.12s-.06,0-.06-.07v-3s0-.07.06-.07h.12s.06,0,.06.07v.31s0,0,0,0h0a.86.86,0,0,1,.36-.32,1.29,1.29,0,0,1,.53-.11,1,1,0,0,1,.56.15.9.9,0,0,1,.36.41s0,0,0,0v0a.89.89,0,0,1,.37-.42,1.27,1.27,0,0,1,.6-.14A1,1,0,0,1,45.8,33.34Z"/><path class="cls-2" d="M51.6,34.19c0,.11,0,.28,0,.49s0,.37,0,.48a2.36,2.36,0,0,1,0,.31,1.1,1.1,0,0,1-.39.61,1.13,1.13,0,0,1-.72.23,1,1,0,0,1-.51-.13,1,1,0,0,1-.36-.33h0s0,0,0,0v1.57s0,.07-.06.07h-.12s-.07,0-.07-.07V33.18s0-.07.07-.07h.12s.06,0,.06.07v.33s0,0,0,0h0a.9.9,0,0,1,.36-.34,1.07,1.07,0,0,1,.51-.12,1.17,1.17,0,0,1,.72.23,1.06,1.06,0,0,1,.38.6A1.34,1.34,0,0,1,51.6,34.19Zm-.25,1c0-.09,0-.25,0-.49s0-.39,0-.48a2.34,2.34,0,0,0,0-.26.82.82,0,0,0-.3-.48.94.94,0,0,0-.58-.19.81.81,0,0,0-.55.19.85.85,0,0,0-.28.48.86.86,0,0,0,0,.24c0,.09,0,.25,0,.49s0,.41,0,.5a.86.86,0,0,0,0,.24.81.81,0,0,0,.28.48.85.85,0,0,0,.54.19.89.89,0,0,0,.88-.66A.92.92,0,0,0,51.35,35.18Z"/><path class="cls-2" d="M54.72,36.19V31.94s0-.07.06-.07h.12s.06,0,.06.07v4.25c0,.05,0,.07-.06.07h-.12S54.72,36.24,54.72,36.19Z"/><path class="cls-2" d="M59.84,35.94a.91.91,0,0,0,.34-.41s0-.05.08,0l.08,0a.05.05,0,0,1,0,.08,1.08,1.08,0,0,1-.41.51,1.25,1.25,0,0,1-.7.2,1.23,1.23,0,0,1-.72-.22,1.13,1.13,0,0,1-.41-.59,3.93,3.93,0,0,1-.07-.82c0-.19,0-.35,0-.46a2.36,2.36,0,0,1,0-.31,1.08,1.08,0,0,1,.4-.61,1.15,1.15,0,0,1,.74-.24,1.21,1.21,0,0,1,.77.25,1.07,1.07,0,0,1,.39.66,1.14,1.14,0,0,1,0,.28c0,.11,0,.25,0,.43s0,.07-.06.07H58.34a0,0,0,0,0,0,0v.37c0,.1,0,.18,0,.23a.8.8,0,0,0,.31.52,1,1,0,0,0,.62.2A1,1,0,0,0,59.84,35.94Zm-1.19-2.46a.84.84,0,0,0-.3.5,4,4,0,0,0,0,.54s0,0,0,0h1.85a0,0,0,0,0,0,0,2,2,0,0,0,0-.52.85.85,0,0,0-.31-.52.93.93,0,0,0-.61-.2A1,1,0,0,0,58.65,33.48Z"/><path class="cls-2" d="M67.23,36.08a1.06,1.06,0,0,1-.4-.61,1.13,1.13,0,0,1,0-.32c0-.12,0-.28,0-.47s0-.35,0-.47a2.24,2.24,0,0,1,0-.31,1.08,1.08,0,0,1,.41-.61,1.31,1.31,0,0,1,1.48,0,1,1,0,0,1,.4.61,1.36,1.36,0,0,1,0,.3c0,.12,0,.27,0,.48s0,.37,0,.48a1.46,1.46,0,0,1,0,.31,1,1,0,0,1-.4.61,1.21,1.21,0,0,1-.74.23A1.19,1.19,0,0,1,67.23,36.08Zm1.34-.19a.86.86,0,0,0,.32-.52,1.7,1.7,0,0,0,0-.28c0-.13,0-.26,0-.4s0-.3,0-.42a1.65,1.65,0,0,0,0-.27.86.86,0,0,0-.32-.52,1,1,0,0,0-.61-.2.92.92,0,0,0-.6.2.85.85,0,0,0-.31.52,3.34,3.34,0,0,0,0,.69,3.22,3.22,0,0,0,0,.68.85.85,0,0,0,.31.52,1,1,0,0,0,1.21,0Z"/><path class="cls-2" d="M72.81,32.28a1,1,0,0,0-.14.61v.2s0,0,0,0h.76s.06,0,.06.07v.1a.05.05,0,0,1-.06.06h-.76l0,0v2.83c0,.05,0,.07-.06.07h-.12s-.07,0-.07-.07V33.36l0,0H72a.05.05,0,0,1-.06-.06v-.1s0-.07.06-.07h.41s0,0,0,0v-.2a1.2,1.2,0,0,1,.2-.77.83.83,0,0,1,.7-.25h.15a.06.06,0,0,1,.07.07V32s0,.06-.07.06h-.13A.62.62,0,0,0,72.81,32.28Z"/><path class="cls-2" d="M81.61,33.34a1.06,1.06,0,0,1,.27.77v2.08c0,.05,0,.07-.06.07H81.7s-.06,0-.06-.07v-.32h0a1.12,1.12,0,0,1-.44.32,1.63,1.63,0,0,1-.59.11,1.16,1.16,0,0,1-.72-.22.74.74,0,0,1-.3-.65.86.86,0,0,1,.34-.72,1.51,1.51,0,0,1,.95-.27h.76s0,0,0,0V34.1a.8.8,0,0,0-.21-.59.83.83,0,0,0-.64-.23,1.06,1.06,0,0,0-.56.14.57.57,0,0,0-.27.38.07.07,0,0,1-.07.06l-.14,0,0,0s0,0,0,0a.76.76,0,0,1,.36-.52,1.32,1.32,0,0,1,.74-.2A1.1,1.1,0,0,1,81.61,33.34Zm-.27,2.55a.65.65,0,0,0,.3-.57v-.63a0,0,0,0,0,0,0h-.75a1.32,1.32,0,0,0-.76.2.66.66,0,0,0-.3.56.59.59,0,0,0,.23.5,1,1,0,0,0,.58.17A1.35,1.35,0,0,0,81.34,35.89Z"/><path class="cls-2" d="M86.5,33.16s0,0,0,.08l0,.12s0,.06-.07,0a.78.78,0,0,0-.31,0,.81.81,0,0,0-.44.13,1,1,0,0,0-.31.35,1.13,1.13,0,0,0-.1.49v1.87a.06.06,0,0,1-.07.07h-.12s-.06,0-.06-.07v-3s0-.07.06-.07h.12a.06.06,0,0,1,.07.07v.49a0,0,0,0,0,0,0,1.08,1.08,0,0,1,.35-.41.9.9,0,0,1,.51-.15A.84.84,0,0,1,86.5,33.16Z"/><path class="cls-2" d="M90.59,33.33h-.76s0,0,0,0v2.08a.57.57,0,0,0,.16.47.74.74,0,0,0,.49.13h.14a.05.05,0,0,1,.06.06v.1a.07.07,0,0,1-.06.07h-.16a1,1,0,0,1-.64-.17.74.74,0,0,1-.23-.62V33.35s0,0,0,0h-.38s-.06,0-.06-.07v-.08s0-.07.06-.07h.38s0,0,0,0v-.71s0-.06.07-.06h.11a.05.05,0,0,1,.06.06v.71s0,0,0,0h.76s.06,0,.06.07v.08C90.65,33.31,90.63,33.33,90.59,33.33Z"/><path class="cls-2" d="M94.07,36.18a1,1,0,0,1-.4-.3.65.65,0,0,1-.14-.4v-.09s0-.06.07-.06h.11a.05.05,0,0,1,.06.06v.08a.48.48,0,0,0,.11.3.82.82,0,0,0,.31.22,1.06,1.06,0,0,0,.45.09,1,1,0,0,0,.61-.18.58.58,0,0,0,.23-.46.44.44,0,0,0-.12-.32.65.65,0,0,0-.27-.17l-.5-.18a4.14,4.14,0,0,1-.55-.2,1.12,1.12,0,0,1-.35-.25.64.64,0,0,1-.14-.42.71.71,0,0,1,.3-.59,1.21,1.21,0,0,1,.77-.22,1.28,1.28,0,0,1,.79.23.69.69,0,0,1,.3.58v0s0,.06-.07.06h-.1s-.07,0-.07,0v0a.5.5,0,0,0-.23-.43,1.21,1.21,0,0,0-1.22,0,.52.52,0,0,0-.23.43.44.44,0,0,0,.11.3.82.82,0,0,0,.28.19l.46.16c.25.08.44.14.58.2a1,1,0,0,1,.35.25.61.61,0,0,1,.15.43.73.73,0,0,1-.29.62,1.22,1.22,0,0,1-.79.24A1.42,1.42,0,0,1,94.07,36.18Z"/><path class="cls-3" d="M13,19.32V13.58l11.5,8.86V11.74L9.28,0,0,12l21.5,16.58-4.6,6L0,21.5v2.7L17.29,37.51l7.2-9.32ZM9.66,3l12.7,9.81v5.35L10.87,9.27v8.41L3,11.6Z"/><rect class="cls-2" x="30.18" y="31.82" width="67.15" height="0.31"/></g></g></svg>